<svg id="svg" version="1.1" xmlns="http://www.w3.org/2000/svg" xmlns:xlink="http://www.w3.org/1999/xlink" width="400" height="427.1356783919598" viewBox="0, 0, 400,427.1356783919598"><g id="svgg"><path id="path0" d="M139.688 89.949 L 82.517 90.075 88.732 158.668 C 92.150 196.394,94.953 227.346,94.961 227.450 C 94.969 227.553,130.534 227.638,173.995 227.638 L 253.015 227.638 253.011 228.329 C 253.005 229.417,247.804 286.954,247.703 287.048 C 247.654 287.094,236.192 290.195,222.233 293.938 L 196.853 300.743 171.479 293.950 C 157.524 290.214,146.038 287.079,145.956 286.983 C 145.840 286.849,142.680 251.784,142.707 250.942 C 142.711 250.839,132.409 250.754,119.815 250.754 L 96.917 250.754 97.053 251.822 C 97.129 252.409,98.576 268.436,100.270 287.437 C 101.963 306.438,103.381 322.026,103.420 322.076 C 103.711 322.451,196.886 348.171,197.335 348.000 C 197.627 347.889,218.556 342.063,243.845 335.052 C 269.133 328.042,289.914 322.223,290.024 322.122 C 290.133 322.021,292.981 291.138,296.352 253.494 C 299.723 215.850,302.550 184.400,302.635 183.606 L 302.789 182.161 219.741 182.161 L 136.693 182.161 136.578 181.595 C 136.313 180.285,132.414 135.593,132.553 135.454 C 132.637 135.370,171.898 135.302,219.799 135.302 L 306.892 135.302 308.961 113.065 C 310.100 100.835,311.036 90.575,311.043 90.264 L 311.055 89.698 253.957 89.760 C 222.553 89.795,171.132 89.879,139.688 89.949 " stroke="none" fill="#f3f3f3" fill-rule="evenodd"></path><path id="path1" d="M196.985 66.960 L 196.985 89.698 254.141 89.698 L 311.297 89.698 311.165 90.766 C 311.093 91.354,310.191 101.049,309.162 112.312 C 308.132 123.574,307.219 133.383,307.133 134.108 L 306.977 135.427 251.981 135.427 L 196.985 135.427 196.985 158.668 L 196.985 181.910 249.860 181.910 C 278.941 181.910,302.777 181.994,302.830 182.098 C 302.982 182.398,290.410 321.963,290.210 322.183 C 290.111 322.292,269.124 328.181,243.571 335.270 L 197.111 348.159 197.046 371.805 L 196.982 395.451 198.177 395.098 C 198.834 394.904,225.937 387.331,258.406 378.268 C 290.875 369.205,317.461 361.766,317.486 361.736 C 317.511 361.707,323.875 290.735,331.629 204.020 C 339.383 117.305,345.791 45.876,345.869 45.289 L 346.011 44.221 271.498 44.221 L 196.985 44.221 196.985 66.960 M196.985 264.223 L 196.985 300.557 197.550 300.410 C 203.349 298.901,247.519 286.983,247.582 286.910 C 247.631 286.855,248.817 273.920,250.219 258.166 C 251.621 242.412,252.829 229.155,252.903 228.706 L 253.038 227.889 225.011 227.889 L 196.985 227.889 196.985 264.223 " stroke="none" fill="#f3642c" fill-rule="evenodd"></path><path id="path2" d="M14.573 13.811 C 14.573 14.016,18.110 53.792,22.740 105.653 C 23.357 112.563,24.372 123.954,24.995 130.967 C 25.619 137.981,26.636 149.400,27.254 156.344 C 27.873 163.288,29.401 180.446,30.650 194.472 C 31.899 208.499,33.657 228.229,34.557 238.317 C 35.457 248.405,36.697 262.312,37.314 269.221 C 37.930 276.131,38.942 287.494,39.562 294.472 C 41.099 311.764,45.796 364.501,46.854 376.349 C 47.328 381.652,47.749 386.014,47.790 386.045 C 48.041 386.229,196.275 427.136,196.691 427.136 C 197.163 427.136,202.425 425.726,213.568 422.614 C 215.986 421.938,222.685 420.079,228.455 418.482 C 234.225 416.886,243.666 414.271,249.435 412.673 C 255.204 411.074,264.617 408.466,270.352 406.878 C 276.087 405.289,284.397 402.986,288.819 401.760 C 303.790 397.608,342.341 386.932,344.767 386.266 L 346.192 385.875 346.338 384.709 C 346.419 384.067,346.825 379.642,347.241 374.874 C 347.657 370.107,348.503 360.553,349.120 353.643 C 349.738 346.734,351.038 332.148,352.010 321.231 C 352.982 310.314,354.284 295.700,354.903 288.756 C 355.522 281.812,356.538 270.421,357.160 263.442 C 357.782 256.464,358.801 245.044,359.423 238.065 C 360.045 231.087,361.061 219.695,361.680 212.751 C 362.299 205.807,363.093 196.903,363.444 192.965 C 363.796 189.026,364.873 176.928,365.840 166.080 C 367.736 144.790,369.199 128.377,370.975 108.480 C 371.594 101.536,372.388 92.632,372.738 88.693 C 374.100 73.386,377.700 33.029,378.649 22.433 C 379.061 17.843,379.397 13.970,379.397 13.827 C 379.397 13.649,322.283 13.568,196.985 13.568 C 79.417 13.568,14.573 13.654,14.573 13.811 M345.981 44.786 C 345.982 45.970,317.834 360.218,317.653 361.041 L 317.462 361.906 257.412 378.681 C 224.384 387.907,197.278 395.461,197.175 395.467 C 197.072 395.473,196.959 384.889,196.923 371.947 L 196.859 348.417 150.141 335.383 C 124.446 328.215,103.372 322.300,103.310 322.238 C 103.248 322.176,101.808 306.604,100.110 287.633 C 98.412 268.662,96.956 252.547,96.876 251.820 L 96.729 250.500 119.784 250.564 L 142.839 250.628 144.429 268.717 C 145.303 278.665,146.057 286.844,146.104 286.891 C 146.171 286.958,193.610 299.710,196.355 300.399 L 196.987 300.557 196.923 264.161 L 196.859 227.764 145.791 227.700 C 117.704 227.666,94.724 227.542,94.724 227.425 C 94.724 227.309,91.954 196.568,88.568 159.112 C 85.182 121.656,82.412 90.715,82.412 90.354 L 82.412 89.698 139.698 89.698 L 196.985 89.698 196.985 66.960 L 196.985 44.221 271.482 44.221 L 345.980 44.221 345.981 44.786 M132.657 135.741 C 132.653 135.914,133.578 146.372,134.713 158.982 L 136.776 181.910 166.881 181.910 L 196.985 181.910 196.985 158.668 L 196.985 135.427 164.824 135.427 C 139.267 135.427,132.662 135.492,132.657 135.741 " stroke="none" fill="#e44c24" fill-rule="evenodd"></path><path id="path3" d="" stroke="none" fill="#ec9473" fill-rule="evenodd"></path><path id="path4" d="M215.955 182.096 C 266.833 182.268,302.956 182.268,302.851 182.098 C 302.787 181.994,278.912 181.937,249.797 181.971 C 220.681 182.004,205.452 182.061,215.955 182.096 " stroke="none" fill="#f48352" fill-rule="evenodd"></path><path id="path5" d="M211.012 227.827 C 218.796 227.863,231.459 227.863,239.152 227.827 C 246.846 227.790,240.477 227.760,225.000 227.760 C 209.523 227.760,203.228 227.790,211.012 227.827 " stroke="none" fill="#f8ac8b" fill-rule="evenodd"></path><path id="path6" d="M151.715 182.098 C 160.052 182.135,173.620 182.135,181.866 182.098 C 190.112 182.061,183.291 182.031,166.709 182.031 C 150.126 182.031,143.379 182.061,151.715 182.098 " stroke="none" fill="#e56b4a" fill-rule="evenodd"></path><path id="path7" d="M345.787 45.980 C 345.787 46.464,345.839 46.661,345.902 46.420 C 345.965 46.178,345.965 45.782,345.902 45.540 C 345.839 45.298,345.787 45.496,345.787 45.980 M345.284 51.759 C 345.284 52.242,345.336 52.440,345.399 52.198 C 345.463 51.957,345.463 51.561,345.399 51.319 C 345.336 51.077,345.284 51.275,345.284 51.759 M345.033 54.523 C 345.033 55.006,345.085 55.204,345.148 54.962 C 345.211 54.720,345.211 54.325,345.148 54.083 C 345.085 53.841,345.033 54.039,345.033 54.523 M344.782 57.286 C 344.782 57.770,344.834 57.968,344.897 57.726 C 344.960 57.484,344.960 57.089,344.897 56.847 C 344.834 56.605,344.782 56.803,344.782 57.286 M344.531 60.050 C 344.531 60.534,344.582 60.732,344.646 60.490 C 344.709 60.248,344.709 59.852,344.646 59.611 C 344.582 59.369,344.531 59.567,344.531 60.050 M344.279 62.814 C 344.279 63.298,344.331 63.496,344.394 63.254 C 344.458 63.012,344.458 62.616,344.394 62.374 C 344.331 62.133,344.279 62.330,344.279 62.814 M343.777 68.593 C 343.777 69.077,343.829 69.274,343.892 69.033 C 343.955 68.791,343.955 68.395,343.892 68.153 C 343.829 67.911,343.777 68.109,343.777 68.593 M343.526 71.357 C 343.526 71.840,343.577 72.038,343.641 71.796 C 343.704 71.555,343.704 71.159,343.641 70.917 C 343.577 70.675,343.526 70.873,343.526 71.357 M343.274 74.121 C 343.274 74.604,343.326 74.802,343.389 74.560 C 343.452 74.318,343.452 73.923,343.389 73.681 C 343.326 73.439,343.274 73.637,343.274 74.121 M343.023 76.884 C 343.023 77.368,343.075 77.566,343.138 77.324 C 343.201 77.082,343.201 76.687,343.138 76.445 C 343.075 76.203,343.023 76.401,343.023 76.884 M342.772 79.648 C 342.772 80.132,342.824 80.330,342.887 80.088 C 342.950 79.846,342.950 79.450,342.887 79.209 C 342.824 78.967,342.772 79.165,342.772 79.648 M342.269 85.427 C 342.269 85.911,342.321 86.109,342.384 85.867 C 342.447 85.625,342.447 85.229,342.384 84.987 C 342.321 84.746,342.269 84.943,342.269 85.427 M342.018 88.191 C 342.018 88.675,342.070 88.872,342.133 88.631 C 342.196 88.389,342.196 87.993,342.133 87.751 C 342.070 87.509,342.018 87.707,342.018 88.191 M341.767 90.955 C 341.767 91.438,341.819 91.636,341.882 91.394 C 341.945 91.153,341.945 90.757,341.882 90.515 C 341.819 90.273,341.767 90.471,341.767 90.955 M341.516 93.719 C 341.516 94.202,341.567 94.400,341.630 94.158 C 341.694 93.916,341.694 93.521,341.630 93.279 C 341.567 93.037,341.516 93.235,341.516 93.719 M341.264 96.482 C 341.264 96.966,341.316 97.164,341.379 96.922 C 341.442 96.680,341.442 96.285,341.379 96.043 C 341.316 95.801,341.264 95.999,341.264 96.482 M340.762 102.261 C 340.762 102.745,340.814 102.943,340.877 102.701 C 340.940 102.459,340.940 102.063,340.877 101.822 C 340.814 101.580,340.762 101.778,340.762 102.261 M340.511 105.025 C 340.511 105.509,340.562 105.707,340.625 105.465 C 340.689 105.223,340.689 104.827,340.625 104.585 C 340.562 104.344,340.511 104.541,340.511 105.025 M340.259 107.789 C 340.259 108.273,340.311 108.470,340.374 108.229 C 340.437 107.987,340.437 107.591,340.374 107.349 C 340.311 107.107,340.259 107.305,340.259 107.789 M340.008 110.553 C 340.008 111.036,340.060 111.234,340.123 110.992 C 340.186 110.751,340.186 110.355,340.123 110.113 C 340.060 109.871,340.008 110.069,340.008 110.553 M339.757 113.317 C 339.757 113.800,339.808 113.998,339.872 113.756 C 339.935 113.514,339.935 113.119,339.872 112.877 C 339.808 112.635,339.757 112.833,339.757 113.317 M339.254 119.095 C 339.254 119.579,339.306 119.777,339.369 119.535 C 339.432 119.293,339.432 118.898,339.369 118.656 C 339.306 118.414,339.254 118.612,339.254 119.095 M339.003 121.859 C 339.003 122.343,339.055 122.541,339.118 122.299 C 339.181 122.057,339.181 121.661,339.118 121.420 C 339.055 121.178,339.003 121.376,339.003 121.859 M338.752 124.623 C 338.752 125.107,338.803 125.305,338.867 125.063 C 338.930 124.821,338.930 124.425,338.867 124.183 C 338.803 123.942,338.752 124.139,338.752 124.623 M338.501 127.387 C 338.501 127.871,338.552 128.068,338.615 127.827 C 338.679 127.585,338.679 127.189,338.615 126.947 C 338.552 126.705,338.501 126.903,338.501 127.387 M338.249 130.151 C 338.249 130.634,338.301 130.832,338.364 130.590 C 338.427 130.349,338.427 129.953,338.364 129.711 C 338.301 129.469,338.249 129.667,338.249 130.151 M337.747 135.930 C 337.747 136.413,337.798 136.611,337.862 136.369 C 337.925 136.128,337.925 135.732,337.862 135.490 C 337.798 135.248,337.747 135.446,337.747 135.930 M337.495 138.693 C 337.495 139.177,337.547 139.375,337.610 139.133 C 337.674 138.891,337.674 138.496,337.610 138.254 C 337.547 138.012,337.495 138.210,337.495 138.693 M337.244 141.457 C 337.244 141.941,337.296 142.139,337.359 141.897 C 337.422 141.655,337.422 141.259,337.359 141.018 C 337.296 140.776,337.244 140.974,337.244 141.457 M336.993 144.221 C 336.993 144.705,337.045 144.903,337.108 144.661 C 337.171 144.419,337.171 144.023,337.108 143.781 C 337.045 143.540,336.993 143.737,336.993 144.221 M336.742 146.985 C 336.742 147.469,336.793 147.666,336.857 147.425 C 336.920 147.183,336.920 146.787,336.857 146.545 C 336.793 146.303,336.742 146.501,336.742 146.985 M336.239 152.764 C 336.239 153.247,336.291 153.445,336.354 153.204 C 336.417 152.962,336.417 152.566,336.354 152.324 C 336.291 152.082,336.239 152.280,336.239 152.764 M335.988 155.528 C 335.988 156.011,336.040 156.209,336.103 155.967 C 336.166 155.726,336.166 155.330,336.103 155.088 C 336.040 154.846,335.988 155.044,335.988 155.528 M335.737 158.291 C 335.737 158.775,335.788 158.973,335.852 158.731 C 335.915 158.489,335.915 158.094,335.852 157.852 C 335.788 157.610,335.737 157.808,335.737 158.291 M335.485 161.055 C 335.485 161.539,335.537 161.737,335.600 161.495 C 335.664 161.253,335.664 160.857,335.600 160.616 C 335.537 160.374,335.485 160.572,335.485 161.055 M335.234 163.819 C 335.234 164.303,335.286 164.501,335.349 164.259 C 335.412 164.017,335.412 163.621,335.349 163.379 C 335.286 163.138,335.234 163.335,335.234 163.819 M334.732 169.598 C 334.732 170.082,334.783 170.280,334.847 170.038 C 334.910 169.796,334.910 169.400,334.847 169.158 C 334.783 168.916,334.732 169.114,334.732 169.598 M334.480 172.362 C 334.480 172.845,334.532 173.043,334.595 172.802 C 334.659 172.560,334.659 172.164,334.595 171.922 C 334.532 171.680,334.480 171.878,334.480 172.362 M334.229 175.126 C 334.229 175.609,334.281 175.807,334.344 175.565 C 334.407 175.323,334.407 174.928,334.344 174.686 C 334.281 174.444,334.229 174.642,334.229 175.126 M333.978 177.889 C 333.978 178.373,334.030 178.571,334.093 178.329 C 334.156 178.087,334.156 177.692,334.093 177.450 C 334.030 177.208,333.978 177.406,333.978 177.889 M333.727 180.653 C 333.727 181.137,333.778 181.335,333.842 181.093 C 333.905 180.851,333.905 180.455,333.842 180.214 C 333.778 179.972,333.727 180.170,333.727 180.653 M333.224 186.432 C 333.224 186.916,333.276 187.114,333.339 186.872 C 333.402 186.630,333.402 186.234,333.339 185.992 C 333.276 185.751,333.224 185.948,333.224 186.432 M332.973 189.196 C 332.973 189.680,333.025 189.878,333.088 189.636 C 333.151 189.394,333.151 188.998,333.088 188.756 C 333.025 188.514,332.973 188.712,332.973 189.196 M332.722 191.960 C 332.722 192.443,332.773 192.641,332.837 192.399 C 332.900 192.158,332.900 191.762,332.837 191.520 C 332.773 191.278,332.722 191.476,332.722 191.960 M332.470 194.724 C 332.470 195.207,332.522 195.405,332.585 195.163 C 332.648 194.921,332.648 194.526,332.585 194.284 C 332.522 194.042,332.470 194.240,332.470 194.724 M332.219 197.487 C 332.219 197.971,332.271 198.169,332.334 197.927 C 332.397 197.685,332.397 197.290,332.334 197.048 C 332.271 196.806,332.219 197.004,332.219 197.487 M331.717 203.266 C 331.717 203.750,331.768 203.948,331.831 203.706 C 331.895 203.464,331.895 203.068,331.831 202.827 C 331.768 202.585,331.717 202.783,331.717 203.266 M331.465 206.030 C 331.465 206.514,331.517 206.712,331.580 206.470 C 331.643 206.228,331.643 205.832,331.580 205.590 C 331.517 205.349,331.465 205.546,331.465 206.030 M331.214 208.794 C 331.214 209.278,331.266 209.476,331.329 209.234 C 331.392 208.992,331.392 208.596,331.329 208.354 C 331.266 208.112,331.214 208.310,331.214 208.794 M330.963 211.558 C 330.963 212.041,331.015 212.239,331.078 211.997 C 331.141 211.756,331.141 211.360,331.078 211.118 C 331.015 210.876,330.963 211.074,330.963 211.558 M330.712 214.322 C 330.712 214.805,330.763 215.003,330.826 214.761 C 330.890 214.519,330.890 214.124,330.826 213.882 C 330.763 213.640,330.712 213.838,330.712 214.322 M330.209 220.101 C 330.209 220.584,330.261 220.782,330.324 220.540 C 330.387 220.298,330.387 219.903,330.324 219.661 C 330.261 219.419,330.209 219.617,330.209 220.101 M329.958 222.864 C 329.958 223.348,330.009 223.546,330.073 223.304 C 330.136 223.062,330.136 222.666,330.073 222.425 C 330.009 222.183,329.958 222.381,329.958 222.864 M329.707 225.628 C 329.707 226.112,329.758 226.310,329.821 226.068 C 329.885 225.826,329.885 225.430,329.821 225.188 C 329.758 224.947,329.707 225.144,329.707 225.628 M329.455 228.392 C 329.455 228.876,329.507 229.073,329.570 228.832 C 329.633 228.590,329.633 228.194,329.570 227.952 C 329.507 227.710,329.455 227.908,329.455 228.392 M329.204 231.156 C 329.204 231.639,329.256 231.837,329.319 231.595 C 329.382 231.354,329.382 230.958,329.319 230.716 C 329.256 230.474,329.204 230.672,329.204 231.156 M328.702 236.935 C 328.702 237.418,328.753 237.616,328.816 237.374 C 328.880 237.133,328.880 236.737,328.816 236.495 C 328.753 236.253,328.702 236.451,328.702 236.935 M328.450 239.698 C 328.450 240.182,328.502 240.380,328.565 240.138 C 328.628 239.896,328.628 239.501,328.565 239.259 C 328.502 239.017,328.450 239.215,328.450 239.698 M328.199 242.462 C 328.199 242.946,328.251 243.144,328.314 242.902 C 328.377 242.660,328.377 242.264,328.314 242.023 C 328.251 241.781,328.199 241.979,328.199 242.462 M327.948 245.226 C 327.948 245.710,327.999 245.908,328.063 245.666 C 328.126 245.424,328.126 245.028,328.063 244.786 C 327.999 244.545,327.948 244.742,327.948 245.226 M327.696 247.990 C 327.696 248.474,327.748 248.671,327.811 248.430 C 327.875 248.188,327.875 247.792,327.811 247.550 C 327.748 247.308,327.696 247.506,327.696 247.990 M327.194 253.769 C 327.194 254.253,327.246 254.450,327.309 254.209 C 327.372 253.967,327.372 253.571,327.309 253.329 C 327.246 253.087,327.194 253.285,327.194 253.769 M326.943 256.533 C 326.943 257.016,326.994 257.214,327.058 256.972 C 327.121 256.731,327.121 256.335,327.058 256.093 C 326.994 255.851,326.943 256.049,326.943 256.533 M326.691 259.296 C 326.691 259.780,326.743 259.978,326.806 259.736 C 326.870 259.494,326.870 259.099,326.806 258.857 C 326.743 258.615,326.691 258.813,326.691 259.296 M326.440 262.060 C 326.440 262.544,326.492 262.742,326.555 262.500 C 326.618 262.258,326.618 261.862,326.555 261.621 C 326.492 261.379,326.440 261.577,326.440 262.060 M326.189 264.824 C 326.189 265.308,326.241 265.506,326.304 265.264 C 326.367 265.022,326.367 264.626,326.304 264.384 C 326.241 264.143,326.189 264.340,326.189 264.824 M325.686 270.603 C 325.686 271.087,325.738 271.285,325.801 271.043 C 325.865 270.801,325.865 270.405,325.801 270.163 C 325.738 269.921,325.686 270.119,325.686 270.603 M325.435 273.367 C 325.435 273.851,325.487 274.048,325.550 273.807 C 325.613 273.565,325.613 273.169,325.550 272.927 C 325.487 272.685,325.435 272.883,325.435 273.367 M325.184 276.131 C 325.184 276.614,325.236 276.812,325.299 276.570 C 325.362 276.329,325.362 275.933,325.299 275.691 C 325.236 275.449,325.184 275.647,325.184 276.131 M324.933 278.894 C 324.933 279.378,324.984 279.576,325.048 279.334 C 325.111 279.092,325.111 278.697,325.048 278.455 C 324.984 278.213,324.933 278.411,324.933 278.894 M324.681 281.658 C 324.681 282.142,324.733 282.340,324.796 282.098 C 324.860 281.856,324.860 281.460,324.796 281.219 C 324.733 280.977,324.681 281.175,324.681 281.658 M324.179 287.437 C 324.179 287.921,324.231 288.119,324.294 287.877 C 324.357 287.635,324.357 287.239,324.294 286.997 C 324.231 286.756,324.179 286.954,324.179 287.437 M323.928 290.201 C 323.928 290.685,323.979 290.883,324.043 290.641 C 324.106 290.399,324.106 290.003,324.043 289.761 C 323.979 289.519,323.928 289.717,323.928 290.201 M323.676 292.965 C 323.676 293.448,323.728 293.646,323.791 293.405 C 323.854 293.163,323.854 292.767,323.791 292.525 C 323.728 292.283,323.676 292.481,323.676 292.965 M323.425 295.729 C 323.425 296.212,323.477 296.410,323.540 296.168 C 323.603 295.927,323.603 295.531,323.540 295.289 C 323.477 295.047,323.425 295.245,323.425 295.729 M323.174 298.492 C 323.174 298.976,323.226 299.174,323.289 298.932 C 323.352 298.690,323.352 298.295,323.289 298.053 C 323.226 297.811,323.174 298.009,323.174 298.492 M322.671 304.271 C 322.671 304.755,322.723 304.953,322.786 304.711 C 322.849 304.469,322.849 304.073,322.786 303.832 C 322.723 303.590,322.671 303.788,322.671 304.271 M322.420 307.035 C 322.420 307.519,322.472 307.717,322.535 307.475 C 322.598 307.233,322.598 306.837,322.535 306.595 C 322.472 306.354,322.420 306.552,322.420 307.035 M322.169 309.799 C 322.169 310.283,322.221 310.481,322.284 310.239 C 322.347 309.997,322.347 309.601,322.284 309.359 C 322.221 309.117,322.169 309.315,322.169 309.799 M321.918 312.563 C 321.918 313.046,321.969 313.244,322.032 313.003 C 322.096 312.761,322.096 312.365,322.032 312.123 C 321.969 311.881,321.918 312.079,321.918 312.563 M321.666 315.327 C 321.666 315.810,321.718 316.008,321.781 315.766 C 321.844 315.524,321.844 315.129,321.781 314.887 C 321.718 314.645,321.666 314.843,321.666 315.327 M321.415 318.342 C 321.415 318.825,321.467 319.023,321.530 318.781 C 321.593 318.540,321.593 318.144,321.530 317.902 C 321.467 317.660,321.415 317.858,321.415 318.342 M321.164 321.106 C 321.164 321.589,321.216 321.787,321.279 321.545 C 321.342 321.303,321.342 320.908,321.279 320.666 C 321.216 320.424,321.164 320.622,321.164 321.106 M320.913 323.869 C 320.913 324.353,320.964 324.551,321.027 324.309 C 321.091 324.067,321.091 323.671,321.027 323.430 C 320.964 323.188,320.913 323.386,320.913 323.869 M320.661 326.633 C 320.661 327.117,320.713 327.315,320.776 327.073 C 320.839 326.831,320.839 326.435,320.776 326.193 C 320.713 325.952,320.661 326.149,320.661 326.633 M320.410 329.397 C 320.410 329.881,320.462 330.079,320.525 329.837 C 320.588 329.595,320.588 329.199,320.525 328.957 C 320.462 328.715,320.410 328.913,320.410 329.397 M320.159 332.161 C 320.159 332.644,320.211 332.842,320.274 332.601 C 320.337 332.359,320.337 331.963,320.274 331.721 C 320.211 331.479,320.159 331.677,320.159 332.161 M319.908 335.176 C 319.908 335.660,319.959 335.857,320.022 335.616 C 320.086 335.374,320.086 334.978,320.022 334.736 C 319.959 334.494,319.908 334.692,319.908 335.176 M319.656 337.940 C 319.656 338.423,319.708 338.621,319.771 338.379 C 319.834 338.138,319.834 337.742,319.771 337.500 C 319.708 337.258,319.656 337.456,319.656 337.940 M319.405 340.704 C 319.405 341.187,319.457 341.385,319.520 341.143 C 319.583 340.901,319.583 340.506,319.520 340.264 C 319.457 340.022,319.405 340.220,319.405 340.704 M319.154 343.467 C 319.154 343.951,319.205 344.149,319.269 343.907 C 319.332 343.665,319.332 343.269,319.269 343.028 C 319.205 342.786,319.154 342.984,319.154 343.467 M318.903 346.231 C 318.903 346.715,318.954 346.913,319.017 346.671 C 319.081 346.429,319.081 346.033,319.017 345.791 C 318.954 345.550,318.903 345.747,318.903 346.231 M318.651 348.995 C 318.651 349.479,318.703 349.677,318.766 349.435 C 318.829 349.193,318.829 348.797,318.766 348.555 C 318.703 348.313,318.651 348.511,318.651 348.995 M318.400 352.010 C 318.400 352.494,318.452 352.692,318.515 352.450 C 318.578 352.208,318.578 351.812,318.515 351.570 C 318.452 351.329,318.400 351.526,318.400 352.010 M318.149 354.774 C 318.149 355.258,318.200 355.455,318.264 355.214 C 318.327 354.972,318.327 354.576,318.264 354.334 C 318.200 354.092,318.149 354.290,318.149 354.774 M317.897 357.538 C 317.897 358.021,317.949 358.219,318.012 357.977 C 318.076 357.736,318.076 357.340,318.012 357.098 C 317.949 356.856,317.897 357.054,317.897 357.538 M317.646 360.302 C 317.646 360.785,317.698 360.983,317.761 360.741 C 317.824 360.499,317.824 360.104,317.761 359.862 C 317.698 359.620,317.646 359.818,317.646 360.302 " stroke="none" fill="#ec5928" fill-rule="evenodd"></path><path id="path8" d="M111.013 89.887 C 126.812 89.923,152.591 89.923,168.299 89.887 C 184.007 89.851,171.080 89.822,139.573 89.822 C 108.065 89.822,95.213 89.851,111.013 89.887 M148.700 135.364 C 157.590 135.401,172.062 135.401,180.861 135.364 C 189.660 135.328,182.387 135.298,164.698 135.298 C 147.010 135.298,139.811 135.328,148.700 135.364 M108.354 250.691 C 114.677 250.728,125.022 250.728,131.344 250.691 C 137.666 250.654,132.494 250.623,119.849 250.623 C 107.205 250.623,102.032 250.654,108.354 250.691 " stroke="none" fill="#eca494" fill-rule="evenodd"></path></g></svg>